<?xml version='1.0' encoding='iso-8859-1'?>
<svg version="1.1" xmlns="http://www.w3.org/2000/svg" viewBox="0 0 512 512" xmlns:xlink="http://www.w3.org/1999/xlink" enable-background="new 0 0 512 512">
  <g>
    <path d="m374,0h-236c-76.2,0-138,61.8-138,138v236c0,76.2 61.8,138 138,138h236c76.2,0 138-61.8 138-138v-236c0-76.2-61.8-138-138-138zm-102.4,309.9c-14.5-1.1-20.6-8.3-31.9-15.2-6.2,32.7-13.8,64-36.4,80.4-7-49.5 10.2-86.6 18.2-126-13.7-23 1.6-69.1 30.3-57.7 35.3,14-30.7,85.2 13.6,94.1 46.2,9.3 65.1-80.2 36.4-109.3-41.4-42-120.5-0.9-110.8,59.2 2.4,14.7 17.6,19.2 6.1,39.5-26.5-5.8-34.4-26.7-33.4-54.6 1.6-45.7 40.9-77.6 80.4-82 49.9-5.6 96.7,18.4 103.2,65.3 7.3,53-22.5,110.3-75.7,106.3z"/>
  </g>
</svg>
