<svg width="580" height="400" xmlns="http://www.w3.org/2000/svg">
 <!-- Created with Method Draw - http://github.com/duopixel/Method-Draw/ -->
 <g>
  <title>background</title>
  <rect fill="#fff" id="canvas_background" height="402" width="582" y="-1" x="-1"/>
  <g display="none" overflow="visible" y="0" x="0" height="100%" width="100%" id="canvasGrid">
   <rect fill="url(#gridpattern)" stroke-width="0" y="0" x="0" height="100%" width="100%"/>
  </g>
 </g>
 <g>
  <title>Layer 1</title>
  <text stroke="#000" transform="matrix(3.224496974122814,0,0,2.9575639992356306,-693.3539447129756,-434.3708748033) " xml:space="preserve" text-anchor="start" font-family="Helvetica, Arial, sans-serif" font-size="24" id="svg_1" y="261.155254" x="271.740504" stroke-width="0" fill="#000000">WFiIS</text>
  <path stroke="#000" id="svg_3" d="m305.741656,193.704323l-7.148677,-24.835641c2.094985,-1.824138 4.061331,-3.775966 5.917414,-5.864604l25.001993,7.095897c2.637108,-3.812449 4.906676,-7.862035 6.937341,-12.066674l-18.606775,-17.876554c0.891288,-2.626759 1.663124,-5.299121 2.214436,-8.05357l25.075501,-6.238553c0.183771,-2.298414 0.358353,-4.605949 0.358353,-6.959087s-0.183771,-4.651552 -0.358353,-6.949966l-25.075501,-6.238553c-0.5605,-2.754449 -1.332337,-5.426811 -2.214436,-8.05357l18.615964,-17.876554c-2.039854,-4.195518 -4.309421,-8.254225 -6.946529,-12.066674l-25.001993,7.086777c-1.846895,-2.079518 -3.822429,-4.031345 -5.917414,-5.864604l7.148677,-24.82652c-3.840806,-2.608518 -7.929702,-4.870449 -12.165615,-6.886122l-18.009521,18.47852c-2.637108,-0.884707 -5.338537,-1.641724 -8.113473,-2.198086l-6.275767,-24.899486c-2.324698,-0.173293 -4.640208,-0.355707 -7.010849,-0.355707s-4.686151,0.182414 -7.001661,0.355707l-6.284955,24.899486c-2.774936,0.556362 -5.467176,1.313379 -8.113473,2.198086l-18.009521,-18.47852c-4.226724,2.043035 -8.306432,4.295845 -12.147238,6.913484l7.148677,24.82652c-2.094985,1.824138 -4.070519,3.785087 -5.908225,5.855483l-25.011181,-7.095897c-2.637108,3.812449 -4.906676,7.871156 -6.937341,12.075795l18.615964,17.876554c-0.882099,2.626759 -1.653936,5.299121 -2.214436,8.05357l-25.08469,6.238553c-0.174582,2.298414 -0.358353,4.605949 -0.358353,6.949966s0.183771,4.651552 0.358353,6.959087l25.08469,6.238553c0.5605,2.754449 1.332337,5.426811 2.214436,8.05357l-18.615964,17.876554c2.030665,4.195518 4.300232,8.254225 6.937341,12.066674l25.011181,-7.095897c1.837706,2.088638 3.81324,4.031345 5.908225,5.864604l-7.148677,24.835641c3.840806,2.608518 7.929702,4.861328 12.156426,6.886122l18.009521,-18.47852c2.646297,0.884707 5.338537,1.650845 8.113473,2.198086l6.284955,24.890365c2.31551,0.182414 4.640208,0.355707 7.010849,0.355707s4.686151,-0.182414 7.010849,-0.355707l6.275767,-24.890365c2.774936,-0.556362 5.476364,-1.3225 8.113473,-2.198086l18.009521,18.47852c4.217536,-2.043035 8.306432,-4.295845 12.147238,-6.904363zm-51.566036,-43.788436c-17.246873,0 -31.231817,-13.881691 -31.231817,-31.001228s13.984944,-30.992107 31.231817,-30.992107s31.222628,13.872571 31.222628,30.992107s-13.975756,31.001228 -31.222628,31.001228zm142.348722,64.802508c0.174582,-4.989018 -0.551312,-10.069243 -2.113362,-15.085623l11.430533,-16.170985c-1.727444,-3.192242 -3.675412,-6.220311 -5.889848,-8.97476l-19.498063,4.058707c-3.932691,-3.319931 -8.407506,-5.910208 -13.19473,-7.761708l-5.614192,-18.961916c-3.546773,-0.620207 -7.139489,-0.957673 -10.778147,-0.966793l-8.949629,17.657657c-2.5636,0.492517 -5.1272,1.167448 -7.644858,2.125121c-2.361452,0.893828 -4.5667,2.006552 -6.680062,3.219604l-18.432193,-7.469846c-2.728994,2.389621 -5.219086,4.970776 -7.470276,7.770829l8.333998,17.949519c-2.37983,4.514742 -4.015388,9.37607 -4.768848,14.456295l-17.375512,9.667932c0.174582,3.538828 0.698328,7.077656 1.506919,10.625605l19.332669,4.733639c2.122551,4.779242 4.970995,9.056846 8.416694,12.705122l-3.234363,19.500037c2.94033,2.097759 6.06443,3.903656 9.307982,5.472414l15.758331,-12.039312c4.925053,1.286017 10.079818,1.778535 15.271338,1.368104l13.341747,14.65695c1.837706,-0.519879 3.666224,-1.076242 5.476364,-1.760293c1.607993,-0.601966 3.124101,-1.313379 4.640208,-2.033914l0.339976,-19.746296c4.180782,-3.091914 7.745932,-6.813156 10.585188,-10.999553l19.856415,-1.222173c1.396657,-3.274328 2.5636,-6.676346 3.381379,-10.16957l-15.335658,-12.604795zm-38.251854,18.305226c-11.035426,4.177276 -23.384811,-1.313379 -27.602347,-12.267329s1.31396,-23.221279 12.349386,-27.407676c11.035426,-4.177276 23.403188,1.313379 27.620724,12.267329c4.208347,10.95395 -1.332337,23.221279 -12.367763,27.407676z" fill-opacity="null" stroke-opacity="null" stroke-width="1.5" fill="#fff"/>
 </g>
</svg>